<svg xmlns="http://www.w3.org/2000/svg" xmlns:xlink="http://www.w3.org/1999/xlink" width="500" zoomAndPan="magnify" viewBox="0 0 375 374.999991" height="500" preserveAspectRatio="xMidYMid meet" version="1.0"><defs><g/><clipPath id="52c86f71b6"><path d="M 149 111 L 374.59375 111 L 374.59375 280.632812 L 149 280.632812 Z M 149 111 " clip-rule="nonzero"/></clipPath><clipPath id="10db861f5a"><path d="M 0 74.082031 L 143 74.082031 L 143 241 L 0 241 Z M 0 74.082031 " clip-rule="nonzero"/></clipPath></defs><rect x="-37.5" width="450" fill="#ffffff" y="-37.499999" height="449.999989" fill-opacity="1"/><rect x="-37.5" width="450" fill="#ffffff" y="-37.499999" height="449.999989" fill-opacity="1"/><g clip-path="url(#52c86f71b6)"><path fill="#faa41a" d="M 374.925781 122.316406 L 326.878906 281.035156 L 292.683594 281.035156 L 255.25 171.992188 L 217.597656 281.035156 L 183.175781 281.035156 L 149.238281 168.964844 L 178.082031 144.085938 L 215.96875 111.414062 L 182.136719 158.785156 L 201.425781 228.820312 L 236.535156 122.316406 L 273.496094 122.316406 L 308.609375 228.820312 L 337.953125 122.316406 Z M 374.925781 122.316406 " fill-opacity="1" fill-rule="nonzero"/></g><g clip-path="url(#10db861f5a)"><path fill="#545454" d="M 102.808594 74.371094 L 64.691406 74.371094 L 0 233.089844 L 38.117188 233.089844 L 48.273438 208.140625 L 88.058594 208.140625 L 63.199219 240.71875 L 100.976562 208.140625 L 142.671875 172.1875 Z M 60.070312 179.257812 L 83.632812 121.265625 L 107.191406 179.257812 Z M 60.070312 179.257812 " fill-opacity="1" fill-rule="nonzero"/></g><g fill="#737373" fill-opacity="1"><g transform="translate(119.569961, 303.817986)"><g><path d="M 11.140625 -2.28125 C 7.453125 -2.28125 5.203125 -4.625 5.203125 -8.859375 C 5.203125 -14.515625 8.328125 -19.109375 11.5 -19.109375 C 12.84375 -19.109375 13.75 -18.265625 13.75 -16.796875 C 13.75 -13.71875 11.6875 -12.890625 11.6875 -12.890625 C 11.6875 -12.890625 12.125 -11.96875 13.46875 -11.96875 C 15.1875 -11.96875 16.828125 -13.359375 16.828125 -15.953125 C 16.828125 -18.390625 15.015625 -20.625 11.578125 -20.625 C 5.890625 -20.625 1.375 -15.78125 1.375 -8.546875 C 1.375 -3.21875 4.984375 0 9.6875 0 C 14.515625 0 17.9375 -2.75 18.265625 -4.1875 C 18.3125 -4.53125 18.234375 -4.78125 17.796875 -4.78125 C 16.53125 -3.40625 14.140625 -2.28125 11.140625 -2.28125 Z M 11.140625 -2.28125 "/></g></g></g><g fill="#737373" fill-opacity="1"><g transform="translate(137.311738, 303.817986)"><g><path d="M 4.265625 -11.03125 C 4.59375 -12.875 4.34375 -13.75 2.234375 -13.75 C 1.203125 -13.75 0.796875 -13.5 0.796875 -13.5 C 0.796875 -13.5 1.078125 -12.875 0.765625 -11.140625 L -0.6875 -2.71875 C -1.015625 -0.796875 -0.765625 0 1.34375 0 C 2.359375 0 2.78125 -0.25 2.78125 -0.25 C 2.78125 -0.25 2.5 -0.828125 2.78125 -2.453125 C 3.4375 -6.328125 4.34375 -8.03125 5.390625 -9.484375 C 6.296875 -10.75 6.90625 -11.109375 7.34375 -11.109375 C 7.75 -11.109375 7.921875 -10.890625 7.921875 -10.5 C 7.921875 -9.765625 7.5625 -9.125 7.5625 -9.125 C 7.5625 -9.125 8.078125 -8.96875 8.796875 -8.96875 C 10.140625 -8.96875 11.078125 -10.0625 11.078125 -11.609375 C 11.078125 -13 10.234375 -13.75 8.875 -13.75 C 7.640625 -13.75 5.796875 -12.78125 4.046875 -9.8125 Z M 4.265625 -11.03125 "/></g></g></g><g fill="#737373" fill-opacity="1"><g transform="translate(149.497186, 303.817986)"><g><path d="M 5.390625 0 C 9.59375 0 12.234375 -2.859375 12.484375 -4.0625 C 12.59375 -4.5625 12.40625 -4.78125 12.046875 -4.78125 C 11.296875 -3.625 9.625 -2.171875 6.6875 -2.171875 C 4.34375 -2.171875 2.921875 -3.765625 2.75 -5.828125 C 7.59375 -6.734375 10.484375 -8.390625 10.484375 -10.890625 C 10.484375 -12.296875 9.34375 -13.75 6.546875 -13.75 C 2.890625 -13.75 -0.828125 -10.8125 -0.828125 -5.9375 C -0.828125 -2.234375 1.78125 0 5.390625 0 Z M 6.578125 -12.375 C 7.15625 -12.375 7.53125 -11.984375 7.53125 -11.40625 C 7.53125 -9.59375 6.125 -7.921875 2.78125 -7.125 C 3.078125 -10.5625 5 -12.375 6.578125 -12.375 Z M 6.578125 -12.375 "/></g></g></g><g fill="#737373" fill-opacity="1"><g transform="translate(161.90267, 303.817986)"><g><path d="M 12.15625 -11.5 C 12.4375 -12.984375 12.78125 -13.46875 12.78125 -13.46875 C 12.78125 -13.46875 12.34375 -13.75 11.40625 -13.75 C 10.0625 -13.75 9.375 -13.390625 8.9375 -12.40625 C 8.3125 -13.203125 7.34375 -13.75 5.96875 -13.75 C 2.75 -13.75 -0.828125 -10.859375 -0.828125 -4.734375 C -0.828125 -1.515625 0.96875 0 3.21875 0 C 4.78125 0 6.296875 -1.078125 7.421875 -3.109375 C 7.5625 -1.125 8.828125 0 10.640625 0 C 13.3125 0 15.296875 -2.609375 15.5625 -4.0625 C 15.640625 -4.5625 15.40625 -4.78125 15.046875 -4.78125 C 14.328125 -3.296875 13.09375 -2.390625 12.15625 -2.390625 C 11.171875 -2.390625 10.671875 -3.15625 10.96875 -4.8125 Z M 4.3125 -2.390625 C 3.296875 -2.390625 2.6875 -3.140625 2.6875 -4.671875 C 2.6875 -9.109375 4.8125 -11.875 6.6875 -11.875 C 7.734375 -11.875 8.25 -11.109375 8.5 -10.5625 L 8.25 -9.265625 C 7.734375 -6.515625 6.265625 -2.390625 4.3125 -2.390625 Z M 4.3125 -2.390625 "/></g></g></g><g fill="#737373" fill-opacity="1"><g transform="translate(177.223881, 303.817986)"><g><path d="M -0.171875 -13.75 C -0.765625 -13.75 -1.09375 -13.421875 -1.09375 -12.953125 C -1.09375 -12.59375 -0.90625 -12.375 -0.90625 -12.375 L 0.875 -12.375 L -0.140625 -6.578125 C -0.390625 -5.171875 -0.4375 -4.265625 -0.4375 -3.625 C -0.4375 -1.4375 1.15625 0 3.1875 0 C 5.796875 0 8.03125 -2.390625 8.4375 -4.0625 C 8.546875 -4.53125 8.3125 -4.78125 7.953125 -4.78125 C 7.34375 -3.625 6.21875 -2.390625 4.640625 -2.390625 C 3.359375 -2.390625 2.8125 -3.296875 3.078125 -4.8125 L 4.40625 -12.375 L 6.625 -12.375 C 7.234375 -12.375 7.5625 -12.703125 7.5625 -13.171875 C 7.5625 -13.53125 7.375 -13.75 7.375 -13.75 L 4.640625 -13.75 L 4.890625 -15.125 C 5.25 -17.046875 4.984375 -17.84375 2.859375 -17.84375 C 1.84375 -17.84375 1.4375 -17.59375 1.4375 -17.59375 C 1.4375 -17.59375 1.734375 -16.96875 1.40625 -15.234375 L 1.125 -13.75 Z M -0.171875 -13.75 "/></g></g></g><g fill="#737373" fill-opacity="1"><g transform="translate(185.420846, 303.817986)"><g><path d="M -0.296875 -6.046875 C -0.5 -4.953125 -0.546875 -3.984375 -0.546875 -3.4375 C -0.546875 -1.234375 0.765625 0 2.671875 0 C 5.328125 0 7.3125 -2.609375 7.59375 -4.0625 C 7.671875 -4.5625 7.421875 -4.78125 7.0625 -4.78125 C 6.359375 -3.296875 5.109375 -2.390625 4.1875 -2.390625 C 3.1875 -2.390625 2.71875 -3.15625 3 -4.8125 L 4.0625 -11.03125 C 4.40625 -12.953125 4.15625 -13.75 2.03125 -13.75 C 1.015625 -13.75 0.609375 -13.5 0.609375 -13.5 C 0.609375 -13.5 0.875 -12.890625 0.578125 -11.140625 Z M 1.546875 -17.875 C 1.546875 -16.90625 2.203125 -16.21875 3.1875 -16.21875 C 4.40625 -16.21875 5.171875 -17.15625 5.171875 -18.125 C 5.171875 -19.109375 4.515625 -19.859375 3.46875 -19.859375 C 2.421875 -19.859375 1.546875 -19 1.546875 -17.875 Z M 1.546875 -17.875 "/></g></g></g><g fill="#737373" fill-opacity="1"><g transform="translate(192.765126, 303.817986)"><g><path d="M 6.796875 -13.75 C 2.09375 -13.75 -0.828125 -10.234375 -0.828125 -5.25 C -0.828125 -1.84375 1.3125 0 4.234375 0 C 7.96875 0 10.5 -2.234375 11.4375 -5.5 C 13.640625 -5.78125 15.375 -7.265625 15.53125 -8.21875 C 15.59375 -8.640625 15.40625 -8.90625 15.046875 -8.90625 C 15.046875 -8.90625 13.78125 -7.0625 11.71875 -6.765625 C 11.796875 -7.3125 11.859375 -7.890625 11.859375 -8.5 C 11.859375 -11.625 10.015625 -13.75 6.796875 -13.75 Z M 6.90625 -8.421875 C 6.90625 -7.5 7.265625 -6.765625 7.953125 -6.25 C 7.234375 -2.9375 6 -1.375 4.515625 -1.375 C 3.359375 -1.375 2.6875 -2.34375 2.6875 -4.0625 C 2.6875 -4.75 2.8125 -6.1875 2.9375 -6.90625 C 3.71875 -11 5.140625 -12.40625 6.515625 -12.40625 C 7.53125 -12.40625 8.171875 -11.65625 8.3125 -10.28125 C 7.390625 -10.09375 6.90625 -9.34375 6.90625 -8.421875 Z M 6.90625 -8.421875 "/></g></g></g><g fill="#737373" fill-opacity="1"><g transform="translate(207.371142, 303.817986)"><g><path d="M 8.140625 -6.578125 C 7.96875 -5.671875 7.734375 -4.15625 7.734375 -3.4375 C 7.734375 -1.375 9 0 11.0625 0 C 13.609375 0 15.671875 -2.671875 15.890625 -4.0625 C 15.984375 -4.5625 15.734375 -4.78125 15.375 -4.78125 C 14.65625 -3.359375 13.640625 -2.390625 12.484375 -2.390625 C 11.328125 -2.390625 11.109375 -3.46875 11.359375 -4.8125 L 12.015625 -8.6875 C 12.15625 -9.515625 12.265625 -10.3125 12.265625 -10.921875 C 12.265625 -12.625 11.171875 -13.75 9.4375 -13.75 C 7.203125 -13.75 5.109375 -11.546875 4.046875 -9.765625 L 4.265625 -11.03125 C 4.59375 -12.953125 4.34375 -13.75 2.234375 -13.75 C 1.203125 -13.75 0.796875 -13.5 0.796875 -13.5 C 0.796875 -13.5 1.078125 -12.875 0.765625 -11.140625 L -0.6875 -2.71875 C -1.015625 -0.796875 -0.765625 0 1.34375 0 C 2.359375 0 2.78125 -0.25 2.78125 -0.25 C 2.78125 -0.25 2.5 -0.875 2.8125 -2.609375 C 3.65625 -7.234375 6.265625 -11.328125 8 -11.328125 C 8.609375 -11.328125 8.875 -10.921875 8.65625 -9.59375 Z M 8.140625 -6.578125 "/></g></g></g><g fill="#737373" fill-opacity="1"><g transform="translate(223.022423, 303.817986)"><g><path d="M 4.375 -8.90625 C 3.46875 -9.375 3.03125 -9.84375 3.03125 -10.640625 C 3.03125 -11.609375 3.765625 -12.375 5.28125 -12.375 C 6.8125 -12.375 7.625 -11.328125 7.625 -10.03125 C 7.625 -9.546875 7.484375 -9.234375 7.484375 -9.234375 C 7.484375 -9.234375 7.859375 -8.859375 8.796875 -8.859375 C 9.765625 -8.859375 10.609375 -9.453125 10.609375 -10.5 C 10.609375 -11.9375 9.015625 -13.75 5.609375 -13.75 C 1.703125 -13.75 -0.21875 -11.9375 -0.21875 -9.703125 C -0.21875 -7.859375 0.859375 -6.984375 2.171875 -6.265625 L 4.875 -4.84375 C 5.859375 -4.3125 6.21875 -3.765625 6.21875 -3.109375 C 6.21875 -2.203125 5.46875 -1.375 3.90625 -1.375 C 2.34375 -1.40625 1.625 -2.359375 1.625 -3.71875 C 1.625 -4.203125 1.765625 -4.515625 1.765625 -4.515625 C 1.765625 -4.515625 1.375 -4.890625 0.4375 -4.890625 C -0.515625 -4.890625 -1.375 -4.296875 -1.375 -3.25 C -1.375 -1.8125 0.109375 0 3.625 0 C 7.625 0 9.453125 -1.875 9.453125 -4.046875 C 9.453125 -5.5 8.75 -6.625 6.734375 -7.671875 Z M 4.375 -8.90625 "/></g></g></g></svg>