<svg xmlns="http://www.w3.org/2000/svg" xmlns:xlink="http://www.w3.org/1999/xlink" width="500" zoomAndPan="magnify" viewBox="0 0 375 374.999991" height="500" preserveAspectRatio="xMidYMid meet" version="1.0"><defs><g/><clipPath id="53d855d3b2"><path d="M 63 160 L 160.207031 160 L 160.207031 232.535156 L 63 232.535156 Z M 63 160 " clip-rule="nonzero"/></clipPath><clipPath id="31528588eb"><path d="M 0 144.144531 L 62 144.144531 L 62 216 L 0 216 Z M 0 144.144531 " clip-rule="nonzero"/></clipPath><clipPath id="8b612263e5"><path d="M 204 197 L 270.570312 197 L 270.570312 221 L 204 221 Z M 204 197 " clip-rule="nonzero"/></clipPath></defs><rect x="-37.5" width="450" fill="#ffffff" y="-37.499999" height="449.999989" fill-opacity="1"/><rect x="-37.5" width="450" fill="#ffffff" y="-37.499999" height="449.999989" fill-opacity="1"/><g clip-path="url(#53d855d3b2)"><path fill="#faa41a" d="M 160.648438 164.808594 L 140.0625 232.820312 L 125.410156 232.820312 L 109.371094 186.09375 L 93.238281 232.820312 L 78.488281 232.820312 L 63.945312 184.796875 L 76.304688 174.136719 L 92.539062 160.140625 L 78.042969 180.4375 L 86.308594 210.445312 L 101.351562 164.808594 L 117.1875 164.808594 L 132.234375 210.445312 L 144.808594 164.808594 Z M 160.648438 164.808594 " fill-opacity="1" fill-rule="nonzero"/></g><g clip-path="url(#31528588eb)"><path fill="#545454" d="M 44.050781 144.265625 L 27.71875 144.265625 L 0 212.273438 L 16.332031 212.273438 L 20.683594 201.582031 L 37.730469 201.582031 L 27.078125 215.542969 L 43.265625 201.582031 L 61.132812 186.179688 Z M 25.738281 189.207031 L 35.835938 164.359375 L 45.929688 189.207031 Z M 25.738281 189.207031 " fill-opacity="1" fill-rule="nonzero"/></g><g fill="#737373" fill-opacity="1"><g transform="translate(51.231321, 242.578333)"><g><path d="M 4.765625 -0.984375 C 3.1875 -0.984375 2.234375 -1.984375 2.234375 -3.796875 C 2.234375 -6.21875 3.5625 -8.1875 4.921875 -8.1875 C 5.5 -8.1875 5.890625 -7.828125 5.890625 -7.203125 C 5.890625 -5.875 5 -5.53125 5 -5.53125 C 5 -5.53125 5.203125 -5.125 5.765625 -5.125 C 6.5 -5.125 7.203125 -5.71875 7.203125 -6.828125 C 7.203125 -7.875 6.4375 -8.828125 4.953125 -8.828125 C 2.515625 -8.828125 0.59375 -6.765625 0.59375 -3.65625 C 0.59375 -1.375 2.125 0 4.140625 0 C 6.21875 0 7.6875 -1.171875 7.828125 -1.796875 C 7.84375 -1.9375 7.8125 -2.046875 7.625 -2.046875 C 7.078125 -1.453125 6.0625 -0.984375 4.765625 -0.984375 Z M 4.765625 -0.984375 "/></g></g></g><g fill="#737373" fill-opacity="1"><g transform="translate(58.833018, 242.578333)"><g><path d="M 1.828125 -4.71875 C 1.96875 -5.515625 1.859375 -5.890625 0.953125 -5.890625 C 0.515625 -5.890625 0.34375 -5.78125 0.34375 -5.78125 C 0.34375 -5.78125 0.453125 -5.515625 0.328125 -4.765625 L -0.296875 -1.171875 C -0.4375 -0.34375 -0.328125 0 0.578125 0 C 1.015625 0 1.1875 -0.109375 1.1875 -0.109375 C 1.1875 -0.109375 1.078125 -0.359375 1.1875 -1.046875 C 1.46875 -2.703125 1.859375 -3.4375 2.3125 -4.0625 C 2.703125 -4.609375 2.953125 -4.765625 3.140625 -4.765625 C 3.328125 -4.765625 3.390625 -4.671875 3.390625 -4.5 C 3.390625 -4.1875 3.234375 -3.90625 3.234375 -3.90625 C 3.234375 -3.90625 3.46875 -3.84375 3.765625 -3.84375 C 4.34375 -3.84375 4.75 -4.3125 4.75 -4.96875 C 4.75 -5.578125 4.375 -5.890625 3.8125 -5.890625 C 3.28125 -5.890625 2.484375 -5.484375 1.734375 -4.203125 Z M 1.828125 -4.71875 "/></g></g></g><g fill="#737373" fill-opacity="1"><g transform="translate(64.054033, 242.578333)"><g><path d="M 2.3125 0 C 4.109375 0 5.25 -1.21875 5.34375 -1.75 C 5.390625 -1.953125 5.3125 -2.046875 5.15625 -2.046875 C 4.84375 -1.5625 4.125 -0.9375 2.859375 -0.9375 C 1.859375 -0.9375 1.25 -1.609375 1.171875 -2.5 C 3.25 -2.890625 4.484375 -3.59375 4.484375 -4.671875 C 4.484375 -5.265625 4 -5.890625 2.796875 -5.890625 C 1.234375 -5.890625 -0.359375 -4.625 -0.359375 -2.546875 C -0.359375 -0.953125 0.765625 0 2.3125 0 Z M 2.8125 -5.296875 C 3.0625 -5.296875 3.234375 -5.140625 3.234375 -4.890625 C 3.234375 -4.109375 2.625 -3.390625 1.1875 -3.046875 C 1.3125 -4.53125 2.140625 -5.296875 2.8125 -5.296875 Z M 2.8125 -5.296875 "/></g></g></g><g fill="#737373" fill-opacity="1"><g transform="translate(69.369326, 242.578333)"><g><path d="M 5.203125 -4.921875 C 5.328125 -5.5625 5.484375 -5.765625 5.484375 -5.765625 C 5.484375 -5.765625 5.296875 -5.890625 4.890625 -5.890625 C 4.3125 -5.890625 4.015625 -5.734375 3.828125 -5.3125 C 3.5625 -5.65625 3.140625 -5.890625 2.5625 -5.890625 C 1.171875 -5.890625 -0.359375 -4.65625 -0.359375 -2.03125 C -0.359375 -0.640625 0.40625 0 1.375 0 C 2.046875 0 2.703125 -0.453125 3.1875 -1.328125 C 3.234375 -0.484375 3.78125 0 4.5625 0 C 5.703125 0 6.546875 -1.125 6.671875 -1.75 C 6.703125 -1.953125 6.59375 -2.046875 6.4375 -2.046875 C 6.140625 -1.40625 5.609375 -1.03125 5.203125 -1.03125 C 4.78125 -1.03125 4.578125 -1.359375 4.703125 -2.0625 Z M 1.84375 -1.03125 C 1.40625 -1.03125 1.15625 -1.34375 1.15625 -2 C 1.15625 -3.90625 2.0625 -5.09375 2.859375 -5.09375 C 3.3125 -5.09375 3.53125 -4.765625 3.640625 -4.53125 L 3.53125 -3.96875 C 3.3125 -2.796875 2.6875 -1.03125 1.84375 -1.03125 Z M 1.84375 -1.03125 "/></g></g></g><g fill="#737373" fill-opacity="1"><g transform="translate(75.933899, 242.578333)"><g><path d="M -0.078125 -5.890625 C -0.328125 -5.890625 -0.46875 -5.75 -0.46875 -5.546875 C -0.46875 -5.390625 -0.390625 -5.296875 -0.390625 -5.296875 L 0.375 -5.296875 L -0.0625 -2.8125 C -0.171875 -2.21875 -0.1875 -1.828125 -0.1875 -1.5625 C -0.1875 -0.609375 0.5 0 1.359375 0 C 2.484375 0 3.4375 -1.03125 3.609375 -1.75 C 3.65625 -1.9375 3.5625 -2.046875 3.40625 -2.046875 C 3.140625 -1.5625 2.65625 -1.03125 1.984375 -1.03125 C 1.4375 -1.03125 1.203125 -1.40625 1.3125 -2.0625 L 1.890625 -5.296875 L 2.84375 -5.296875 C 3.09375 -5.296875 3.234375 -5.4375 3.234375 -5.640625 C 3.234375 -5.796875 3.15625 -5.890625 3.15625 -5.890625 L 1.984375 -5.890625 L 2.09375 -6.484375 C 2.25 -7.296875 2.125 -7.640625 1.21875 -7.640625 C 0.796875 -7.640625 0.609375 -7.546875 0.609375 -7.546875 C 0.609375 -7.546875 0.75 -7.265625 0.59375 -6.53125 L 0.484375 -5.890625 Z M -0.078125 -5.890625 "/></g></g></g><g fill="#737373" fill-opacity="1"><g transform="translate(79.445997, 242.578333)"><g><path d="M -0.125 -2.59375 C -0.21875 -2.125 -0.234375 -1.703125 -0.234375 -1.46875 C -0.234375 -0.53125 0.328125 0 1.140625 0 C 2.28125 0 3.140625 -1.125 3.25 -1.75 C 3.28125 -1.953125 3.1875 -2.046875 3.03125 -2.046875 C 2.71875 -1.40625 2.1875 -1.03125 1.796875 -1.03125 C 1.359375 -1.03125 1.171875 -1.359375 1.28125 -2.0625 L 1.75 -4.71875 C 1.890625 -5.546875 1.78125 -5.890625 0.875 -5.890625 C 0.4375 -5.890625 0.265625 -5.78125 0.265625 -5.78125 C 0.265625 -5.78125 0.375 -5.53125 0.25 -4.765625 Z M 0.65625 -7.65625 C 0.65625 -7.25 0.9375 -6.953125 1.359375 -6.953125 C 1.890625 -6.953125 2.21875 -7.34375 2.21875 -7.765625 C 2.21875 -8.1875 1.9375 -8.5 1.484375 -8.5 C 1.03125 -8.5 0.65625 -8.140625 0.65625 -7.65625 Z M 0.65625 -7.65625 "/></g></g></g><g fill="#737373" fill-opacity="1"><g transform="translate(82.59275, 242.578333)"><g><path d="M 2.90625 -5.890625 C 0.890625 -5.890625 -0.359375 -4.375 -0.359375 -2.25 C -0.359375 -0.796875 0.5625 0 1.8125 0 C 3.421875 0 4.5 -0.953125 4.90625 -2.359375 C 5.84375 -2.46875 6.578125 -3.109375 6.65625 -3.515625 C 6.6875 -3.703125 6.59375 -3.8125 6.4375 -3.8125 C 6.4375 -3.8125 5.90625 -3.03125 5.015625 -2.890625 C 5.046875 -3.140625 5.078125 -3.375 5.078125 -3.640625 C 5.078125 -4.984375 4.28125 -5.890625 2.90625 -5.890625 Z M 2.953125 -3.609375 C 2.953125 -3.21875 3.109375 -2.890625 3.40625 -2.671875 C 3.09375 -1.265625 2.5625 -0.59375 1.9375 -0.59375 C 1.4375 -0.59375 1.15625 -1 1.15625 -1.75 C 1.15625 -2.03125 1.203125 -2.65625 1.265625 -2.953125 C 1.59375 -4.71875 2.203125 -5.3125 2.796875 -5.3125 C 3.234375 -5.3125 3.5 -5 3.5625 -4.40625 C 3.171875 -4.328125 2.953125 -4 2.953125 -3.609375 Z M 2.953125 -3.609375 "/></g></g></g><g fill="#737373" fill-opacity="1"><g transform="translate(88.850889, 242.578333)"><g><path d="M 3.484375 -2.8125 C 3.421875 -2.421875 3.3125 -1.78125 3.3125 -1.46875 C 3.3125 -0.59375 3.859375 0 4.734375 0 C 5.828125 0 6.71875 -1.140625 6.8125 -1.75 C 6.84375 -1.953125 6.734375 -2.046875 6.578125 -2.046875 C 6.28125 -1.4375 5.84375 -1.03125 5.34375 -1.03125 C 4.859375 -1.03125 4.765625 -1.484375 4.859375 -2.0625 L 5.140625 -3.71875 C 5.203125 -4.078125 5.25 -4.421875 5.25 -4.671875 C 5.25 -5.40625 4.78125 -5.890625 4.046875 -5.890625 C 3.09375 -5.890625 2.1875 -4.953125 1.734375 -4.1875 L 1.828125 -4.71875 C 1.96875 -5.546875 1.859375 -5.890625 0.953125 -5.890625 C 0.515625 -5.890625 0.34375 -5.78125 0.34375 -5.78125 C 0.34375 -5.78125 0.453125 -5.515625 0.328125 -4.765625 L -0.296875 -1.171875 C -0.4375 -0.34375 -0.328125 0 0.578125 0 C 1.015625 0 1.1875 -0.109375 1.1875 -0.109375 C 1.1875 -0.109375 1.078125 -0.375 1.203125 -1.125 C 1.5625 -3.09375 2.6875 -4.859375 3.421875 -4.859375 C 3.6875 -4.859375 3.8125 -4.671875 3.71875 -4.109375 Z M 3.484375 -2.8125 "/></g></g></g><g fill="#737373" fill-opacity="1"><g transform="translate(95.556886, 242.578333)"><g><path d="M 1.875 -3.8125 C 1.484375 -4.015625 1.296875 -4.21875 1.296875 -4.5625 C 1.296875 -4.96875 1.609375 -5.296875 2.265625 -5.296875 C 2.921875 -5.296875 3.265625 -4.859375 3.265625 -4.296875 C 3.265625 -4.09375 3.203125 -3.953125 3.203125 -3.953125 C 3.203125 -3.953125 3.375 -3.796875 3.765625 -3.796875 C 4.1875 -3.796875 4.546875 -4.046875 4.546875 -4.5 C 4.546875 -5.109375 3.859375 -5.890625 2.40625 -5.890625 C 0.734375 -5.890625 -0.09375 -5.109375 -0.09375 -4.15625 C -0.09375 -3.375 0.359375 -3 0.9375 -2.6875 L 2.078125 -2.078125 C 2.515625 -1.84375 2.65625 -1.609375 2.65625 -1.328125 C 2.65625 -0.9375 2.34375 -0.59375 1.671875 -0.59375 C 1 -0.59375 0.6875 -1.015625 0.6875 -1.59375 C 0.6875 -1.796875 0.75 -1.9375 0.75 -1.9375 C 0.75 -1.9375 0.59375 -2.09375 0.1875 -2.09375 C -0.21875 -2.09375 -0.59375 -1.84375 -0.59375 -1.390625 C -0.59375 -0.78125 0.046875 0 1.5625 0 C 3.265625 0 4.046875 -0.796875 4.046875 -1.734375 C 4.046875 -2.359375 3.75 -2.84375 2.890625 -3.28125 Z M 1.875 -3.8125 "/></g></g></g><path fill="#3f5965" d="M 239.851562 226.660156 C 241.03125 226.308594 242.175781 225.90625 243.292969 225.457031 C 223.976562 229.28125 204.570312 217.832031 198.851562 198.578125 C 193.132812 179.324219 203.148438 159.136719 221.417969 151.796875 C 220.238281 152.03125 219.058594 152.316406 217.878906 152.667969 C 197.449219 158.734375 185.804688 180.21875 191.871094 200.648438 C 197.9375 221.082031 219.421875 232.726562 239.851562 226.660156 " fill-opacity="1" fill-rule="nonzero"/><path fill="#faa41a" d="M 192.035156 216.863281 C 193.058594 217.667969 194.113281 218.410156 195.183594 219.101562 C 180.03125 204.75 178.023438 180.953125 191.160156 164.199219 C 204.296875 147.449219 227.882812 143.722656 245.4375 155.015625 C 244.507812 154.136719 243.539062 153.292969 242.511719 152.488281 C 224.734375 138.550781 199.027344 141.664062 185.085938 159.4375 C 171.148438 177.214844 174.257812 202.925781 192.035156 216.863281 " fill-opacity="1" fill-rule="nonzero"/><g clip-path="url(#8b612263e5)"><path fill="#faa41a" d="M 230.070312 214.996094 C 219.53125 212.160156 210.859375 205.839844 204.960938 197.609375 C 209.609375 207.875 218.648438 216.054688 230.378906 219.207031 C 245.703125 223.328125 261.347656 217.71875 270.761719 206.167969 C 259.8125 215.1875 244.8125 218.957031 230.070312 214.996094 " fill-opacity="1" fill-rule="nonzero"/></g><g fill="#3f5965" fill-opacity="1"><g transform="translate(216.113091, 195.744854)"><g><path d="M 0.3125 0 L 4.15625 -22.0625 L 11.03125 -22.046875 C 13.582031 -22.035156 15.5 -21.515625 16.78125 -20.484375 C 18.070312 -19.453125 18.65625 -18.003906 18.53125 -16.140625 C 18.382812 -13.898438 17.097656 -12.269531 14.671875 -11.25 C 15.546875 -10.9375 16.222656 -10.363281 16.703125 -9.53125 C 17.191406 -8.695312 17.398438 -7.71875 17.328125 -6.59375 C 17.191406 -4.507812 16.378906 -2.890625 14.890625 -1.734375 C 13.398438 -0.578125 11.363281 0 8.78125 0 Z M 6.4375 -9.609375 L 5.390625 -3.65625 L 8.890625 -3.640625 C 9.984375 -3.640625 10.898438 -3.90625 11.640625 -4.4375 C 12.378906 -4.976562 12.816406 -5.710938 12.953125 -6.640625 C 13.097656 -7.546875 12.972656 -8.253906 12.578125 -8.765625 C 12.191406 -9.273438 11.539062 -9.550781 10.625 -9.59375 Z M 6.984375 -12.8125 L 10 -12.78125 C 11.125 -12.800781 12.039062 -13.0625 12.75 -13.5625 C 13.457031 -14.070312 13.882812 -14.78125 14.03125 -15.6875 C 14.28125 -17.457031 13.347656 -18.347656 11.234375 -18.359375 L 7.953125 -18.375 Z M 6.984375 -12.8125 "/></g></g></g><g fill="#3f5965" fill-opacity="1"><g transform="translate(234.019199, 195.744854)"><g><path d="M 9.421875 -16.703125 C 10.867188 -16.679688 12.113281 -16.304688 13.15625 -15.578125 C 14.207031 -14.859375 14.976562 -13.863281 15.46875 -12.59375 C 15.957031 -11.332031 16.128906 -9.925781 15.984375 -8.375 C 15.753906 -5.769531 14.847656 -3.660156 13.265625 -2.046875 C 11.679688 -0.441406 9.726562 0.335938 7.40625 0.296875 C 5.976562 0.273438 4.742188 -0.0859375 3.703125 -0.796875 C 2.671875 -1.503906 1.90625 -2.488281 1.40625 -3.75 C 0.914062 -5.019531 0.738281 -6.414062 0.875 -7.9375 C 1.132812 -10.644531 2.050781 -12.796875 3.625 -14.390625 C 5.207031 -15.984375 7.140625 -16.753906 9.421875 -16.703125 Z M 5.109375 -6.375 C 5.128906 -5.40625 5.351562 -4.640625 5.78125 -4.078125 C 6.21875 -3.523438 6.832031 -3.238281 7.625 -3.21875 C 8.9375 -3.175781 9.960938 -3.773438 10.703125 -5.015625 C 11.453125 -6.265625 11.804688 -7.90625 11.765625 -9.9375 C 11.722656 -10.90625 11.484375 -11.679688 11.046875 -12.265625 C 10.617188 -12.847656 10.007812 -13.148438 9.21875 -13.171875 C 7.9375 -13.210938 6.914062 -12.613281 6.15625 -11.375 C 5.394531 -10.132812 5.046875 -8.46875 5.109375 -6.375 Z M 5.109375 -6.375 "/></g></g></g><g fill="#3f5965" fill-opacity="1"><g transform="translate(249.7282, 195.744854)"><g><path d="M 11.265625 -12.28125 C 10.679688 -12.382812 10.203125 -12.4375 9.828125 -12.4375 C 8.304688 -12.476562 7.101562 -11.910156 6.21875 -10.734375 L 4.3125 0 L 0.046875 0 L 2.890625 -16.390625 L 6.90625 -16.40625 L 6.515625 -14.40625 C 7.546875 -15.957031 8.816406 -16.734375 10.328125 -16.734375 C 10.753906 -16.734375 11.25 -16.660156 11.8125 -16.515625 Z M 11.265625 -12.28125 "/></g></g></g><g fill="#3f5965" fill-opacity="1"><g transform="translate(259.406517, 195.744854)"><g><path d="M 11.265625 -12.28125 C 10.679688 -12.382812 10.203125 -12.4375 9.828125 -12.4375 C 8.304688 -12.476562 7.101562 -11.910156 6.21875 -10.734375 L 4.3125 0 L 0.046875 0 L 2.890625 -16.390625 L 6.90625 -16.40625 L 6.515625 -14.40625 C 7.546875 -15.957031 8.816406 -16.734375 10.328125 -16.734375 C 10.753906 -16.734375 11.25 -16.660156 11.8125 -16.515625 Z M 11.265625 -12.28125 "/></g></g></g><g fill="#3f5965" fill-opacity="1"><g transform="translate(269.084837, 195.744854)"><g><path d="M 9.421875 -16.703125 C 10.867188 -16.679688 12.113281 -16.304688 13.15625 -15.578125 C 14.207031 -14.859375 14.976562 -13.863281 15.46875 -12.59375 C 15.957031 -11.332031 16.128906 -9.925781 15.984375 -8.375 C 15.753906 -5.769531 14.847656 -3.660156 13.265625 -2.046875 C 11.679688 -0.441406 9.726562 0.335938 7.40625 0.296875 C 5.976562 0.273438 4.742188 -0.0859375 3.703125 -0.796875 C 2.671875 -1.503906 1.90625 -2.488281 1.40625 -3.75 C 0.914062 -5.019531 0.738281 -6.414062 0.875 -7.9375 C 1.132812 -10.644531 2.050781 -12.796875 3.625 -14.390625 C 5.207031 -15.984375 7.140625 -16.753906 9.421875 -16.703125 Z M 5.109375 -6.375 C 5.128906 -5.40625 5.351562 -4.640625 5.78125 -4.078125 C 6.21875 -3.523438 6.832031 -3.238281 7.625 -3.21875 C 8.9375 -3.175781 9.960938 -3.773438 10.703125 -5.015625 C 11.453125 -6.265625 11.804688 -7.90625 11.765625 -9.9375 C 11.722656 -10.90625 11.484375 -11.679688 11.046875 -12.265625 C 10.617188 -12.847656 10.007812 -13.148438 9.21875 -13.171875 C 7.9375 -13.210938 6.914062 -12.613281 6.15625 -11.375 C 5.394531 -10.132812 5.046875 -8.46875 5.109375 -6.375 Z M 5.109375 -6.375 "/></g></g></g><g fill="#3f5965" fill-opacity="1"><g transform="translate(284.79384, 195.744854)"><g><path d="M 14.84375 -5.96875 L 18.75 -16.390625 L 23 -16.390625 L 16.109375 0 L 12.53125 0 L 11.3125 -10.265625 L 6.53125 0 L 2.953125 0 L 1.75 -16.390625 L 5.75 -16.390625 L 6 -6.078125 L 10.6875 -16.390625 L 13.765625 -16.390625 Z M 14.84375 -5.96875 "/></g></g></g><g fill="#faa41a" fill-opacity="1"><g transform="translate(307.078168, 195.551056)"><g><path d="M 0.3125 0 L 4.15625 -22.0625 L 11.03125 -22.046875 C 13.582031 -22.035156 15.5 -21.515625 16.78125 -20.484375 C 18.070312 -19.453125 18.65625 -18.003906 18.53125 -16.140625 C 18.382812 -13.898438 17.097656 -12.269531 14.671875 -11.25 C 15.546875 -10.9375 16.222656 -10.363281 16.703125 -9.53125 C 17.191406 -8.695312 17.398438 -7.71875 17.328125 -6.59375 C 17.191406 -4.507812 16.378906 -2.890625 14.890625 -1.734375 C 13.398438 -0.578125 11.363281 0 8.78125 0 Z M 6.4375 -9.609375 L 5.390625 -3.65625 L 8.890625 -3.640625 C 9.984375 -3.640625 10.898438 -3.90625 11.640625 -4.4375 C 12.378906 -4.976562 12.816406 -5.710938 12.953125 -6.640625 C 13.097656 -7.546875 12.972656 -8.253906 12.578125 -8.765625 C 12.191406 -9.273438 11.539062 -9.550781 10.625 -9.59375 Z M 6.984375 -12.8125 L 10 -12.78125 C 11.125 -12.800781 12.039062 -13.0625 12.75 -13.5625 C 13.457031 -14.070312 13.882812 -14.78125 14.03125 -15.6875 C 14.28125 -17.457031 13.347656 -18.347656 11.234375 -18.359375 L 7.953125 -18.375 Z M 6.984375 -12.8125 "/></g></g></g><g fill="#faa41a" fill-opacity="1"><g transform="translate(324.984276, 195.551056)"><g><path d="M 9.421875 -16.703125 C 10.867188 -16.679688 12.113281 -16.304688 13.15625 -15.578125 C 14.207031 -14.859375 14.976562 -13.863281 15.46875 -12.59375 C 15.957031 -11.332031 16.128906 -9.925781 15.984375 -8.375 C 15.753906 -5.769531 14.847656 -3.660156 13.265625 -2.046875 C 11.679688 -0.441406 9.726562 0.335938 7.40625 0.296875 C 5.976562 0.273438 4.742188 -0.0859375 3.703125 -0.796875 C 2.671875 -1.503906 1.90625 -2.488281 1.40625 -3.75 C 0.914062 -5.019531 0.738281 -6.414062 0.875 -7.9375 C 1.132812 -10.644531 2.050781 -12.796875 3.625 -14.390625 C 5.207031 -15.984375 7.140625 -16.753906 9.421875 -16.703125 Z M 5.109375 -6.375 C 5.128906 -5.40625 5.351562 -4.640625 5.78125 -4.078125 C 6.21875 -3.523438 6.832031 -3.238281 7.625 -3.21875 C 8.9375 -3.175781 9.960938 -3.773438 10.703125 -5.015625 C 11.453125 -6.265625 11.804688 -7.90625 11.765625 -9.9375 C 11.722656 -10.90625 11.484375 -11.679688 11.046875 -12.265625 C 10.617188 -12.847656 10.007812 -13.148438 9.21875 -13.171875 C 7.9375 -13.210938 6.914062 -12.613281 6.15625 -11.375 C 5.394531 -10.132812 5.046875 -8.46875 5.109375 -6.375 Z M 5.109375 -6.375 "/></g></g></g><g fill="#faa41a" fill-opacity="1"><g transform="translate(340.693276, 195.551056)"><g><path d="M 9.421875 -16.703125 C 10.867188 -16.679688 12.113281 -16.304688 13.15625 -15.578125 C 14.207031 -14.859375 14.976562 -13.863281 15.46875 -12.59375 C 15.957031 -11.332031 16.128906 -9.925781 15.984375 -8.375 C 15.753906 -5.769531 14.847656 -3.660156 13.265625 -2.046875 C 11.679688 -0.441406 9.726562 0.335938 7.40625 0.296875 C 5.976562 0.273438 4.742188 -0.0859375 3.703125 -0.796875 C 2.671875 -1.503906 1.90625 -2.488281 1.40625 -3.75 C 0.914062 -5.019531 0.738281 -6.414062 0.875 -7.9375 C 1.132812 -10.644531 2.050781 -12.796875 3.625 -14.390625 C 5.207031 -15.984375 7.140625 -16.753906 9.421875 -16.703125 Z M 5.109375 -6.375 C 5.128906 -5.40625 5.351562 -4.640625 5.78125 -4.078125 C 6.21875 -3.523438 6.832031 -3.238281 7.625 -3.21875 C 8.9375 -3.175781 9.960938 -3.773438 10.703125 -5.015625 C 11.453125 -6.265625 11.804688 -7.90625 11.765625 -9.9375 C 11.722656 -10.90625 11.484375 -11.679688 11.046875 -12.265625 C 10.617188 -12.847656 10.007812 -13.148438 9.21875 -13.171875 C 7.9375 -13.210938 6.914062 -12.613281 6.15625 -11.375 C 5.394531 -10.132812 5.046875 -8.46875 5.109375 -6.375 Z M 5.109375 -6.375 "/></g></g></g><g fill="#faa41a" fill-opacity="1"><g transform="translate(356.402275, 195.551056)"><g><path d="M 7.140625 -6.53125 L 5.15625 -4.796875 L 4.3125 0 L 0.046875 0 L 4.078125 -23.28125 L 8.359375 -23.28125 L 6.15625 -10.640625 L 6.984375 -11.53125 L 11.84375 -16.390625 L 17.328125 -16.390625 L 10.171875 -9.34375 L 14.734375 0 L 10.046875 0 Z M 7.140625 -6.53125 "/></g></g></g></svg>